<svg width="92" height="96" viewBox="0 0 92 96" fill="none" xmlns="http://www.w3.org/2000/svg">
<path d="M18.764 52.1521C18.0168 51.842 17.1564 52.0125 16.584 52.5841L10.0001 59.1721L3.41606 52.5841C2.63606 51.8021 1.36969 51.8006 0.587627 52.5806C0.210565 52.9567 -0.000934395 53.4676 3.10343e-06 54.0001V94C3.10343e-06 95.1046 0.895501 96.0001 2.00006 96.0001H18C19.1045 96.0001 20 95.1046 20 94V54.0001C20 53.1909 19.512 52.4613 18.764 52.1521Z" fill="#64B5F6"/>
<path d="M35.4161 36.5841C34.6352 35.8033 33.3692 35.8033 32.588 36.5841L24.588 44.5841C24.2117 44.9593 24.0002 45.4688 24 46.0001V94C24 95.1046 24.8955 96.0001 26.0001 96.0001H42C43.1045 96.0001 44 95.1046 44 94V46.0001C44.001 45.4693 43.791 44.9599 43.416 44.5841L35.4161 36.5841Z" fill="#42A5F5"/>
<path d="M59.4161 28.5841C58.6352 27.8033 57.3692 27.8033 56.588 28.5841L48.588 36.5841C48.2117 36.9593 48.0002 37.4688 48 38.0001V94.0001C48 95.1047 48.8955 96.0001 50.0001 96.0001H66C67.1045 96.0001 68 95.1047 68 94.0001V38.0001C68.001 37.4693 67.791 36.9599 67.416 36.5841L59.4161 28.5841Z" fill="#2196F3"/>
<path d="M91.4162 24.584L87.4162 20.5841C87.0405 20.2093 86.531 19.9991 86.0002 20H82.0001C81.4693 19.9991 80.9599 20.2091 80.5841 20.5841L72.5841 28.5841C72.2093 28.9599 71.9991 29.4693 72 30.0001V93.9999C72 95.1045 72.8955 96 74.0001 96H90C91.1045 96 92 95.1045 92 93.9999V26C92.001 25.4692 91.791 24.9597 91.4162 24.584Z" fill="#1976D2"/>
<path d="M90.0002 3.56154e-06H78.0003C76.8957 -0.00205893 75.9987 0.891939 75.9966 1.9965C75.9957 2.529 76.2072 3.03994 76.5843 3.41606L81.1722 8.00005L66.0003 23.172L59.4162 16.584C58.6353 15.8032 57.3693 15.8032 56.5882 16.584L42.0002 31.172L35.4161 24.584C34.6352 23.8033 33.3692 23.8033 32.588 24.584L10.0003 47.1719L3.41629 40.5839C2.62185 39.8165 1.35567 39.8386 0.588229 40.6331C-0.160269 41.4082 -0.160269 42.6369 0.588229 43.4118L8.58828 51.4118C9.36921 52.1926 10.6352 52.1926 11.4163 51.4118L34.0003 28.8279L40.5843 35.4119C41.3653 36.1927 42.6313 36.1927 43.4124 35.4119L58.0002 20.828L64.5843 27.4121C65.3652 28.1928 66.6312 28.1928 67.4123 27.4121L84.0003 10.8281L88.5842 15.4121C88.9594 15.7884 89.4689 15.9999 90.0002 16.0001C90.2626 16.0007 90.5222 15.9489 90.7643 15.848C91.5122 15.5388 92.0001 14.8095 92.0003 14V2.00006C92.0001 0.895502 91.1048 3.56154e-06 90.0002 3.56154e-06Z" fill="#455A64"/>
</svg>
