<svg width="96" height="96" viewBox="0 0 96 96" fill="none" xmlns="http://www.w3.org/2000/svg">
<path d="M50.5449 55.0773V67.4253V77.7416V93.4554C50.5449 94.8609 49.4056 96 48.0001 96C46.5946 96 45.4556 94.8608 45.4556 93.4554V77.7416V67.4253V55.0773V40.9231V28.5751V18.2588V2.54475C45.4556 1.13925 46.5946 0 48.0001 0C49.4056 0 50.5449 1.13925 50.5449 2.54475V18.2586V28.5749V40.9229" fill="#CC722E"/>
<path d="M44.7952 54.8037L36.0636 63.5353L28.7689 70.83L17.6575 81.9414C16.6637 82.9352 15.0525 82.9352 14.0588 81.9414C13.065 80.9477 13.065 79.3365 14.0588 78.3427L25.1702 67.2313L32.465 59.9366L41.1965 51.205L51.205 41.1965L59.9366 32.465L67.2313 25.1702L78.3427 14.0588C79.3365 13.065 80.9477 13.065 81.9414 14.0588C82.9352 15.0525 82.9352 16.6637 81.9414 17.6575L70.83 28.7689L63.5353 36.0636L54.8037 44.7952" fill="#CC722E"/>
<path d="M54.8036 51.2052L63.5351 59.9368L70.8298 67.2315L81.9412 78.3429C82.935 79.3367 82.935 80.9479 81.9412 81.9416C80.9475 82.9354 79.3363 82.9354 78.3425 81.9416L67.2311 70.8302L59.9364 63.5355L51.2049 54.8039L41.1963 44.7954L32.4648 36.0638L25.1701 28.7691L14.0588 17.6575C13.065 16.6637 13.065 15.0525 14.0588 14.0588C15.0525 13.065 16.6637 13.065 17.6575 14.0588L28.7689 25.1702L36.0636 32.465L44.7952 41.1965" fill="#CC722E"/>
<path d="M55.0773 45.4556H67.4253H77.7416H93.4554C94.8609 45.4556 96 46.5948 96 48.0001C96 49.4056 94.8608 50.5449 93.4554 50.5449H77.7416H67.4253H55.0773H40.9231H28.5751H18.2588H2.54475C1.13925 50.5449 0 49.4056 0 48.0001C0 46.5946 1.13925 45.4556 2.54475 45.4556H18.2586H28.5749H40.9229" fill="#CC722E"/>
<path d="M48 18.1514C31.5148 18.1514 18.1509 31.5153 18.1509 48.0007C18.1509 64.4861 31.5148 77.85 48 77.85C64.4852 77.85 77.8491 64.4861 77.8491 48.0007C77.8493 31.5153 64.4854 18.1514 48 18.1514ZM48 67.589C37.1814 67.589 28.4115 58.8191 28.4115 48.0005C28.4115 37.1819 37.1816 28.412 48 28.412C58.8184 28.412 67.5885 37.1821 67.5885 48.0005C67.5887 58.8191 58.8186 67.589 48 67.589Z" fill="#FFA91F"/>
<path d="M48.0011 55.5189C52.1542 55.5189 55.5208 52.1522 55.5208 47.9992C55.5208 43.8462 52.1542 40.4795 48.0011 40.4795C43.8481 40.4795 40.4814 43.8462 40.4814 47.9992C40.4814 52.1522 43.8481 55.5189 48.0011 55.5189Z" fill="#FFA91F"/>
</svg>
