<svg xmlns="http://www.w3.org/2000/svg" viewBox="0 0 85.30104 84.08245"><title>1_0</title><g id="Слой_2" data-name="Слой 2"><g id="Слой_1-2" data-name="Слой 1"><path d="M15.3236,9.03587A6.32013,6.32013,0,1,0,21.62978,15.356,6.32089,6.32089,0,0,0,15.3236,9.03587Zm0,9.83126A3.51118,3.51118,0,1,1,18.827,15.356,3.51129,3.51129,0,0,1,15.3236,18.86713Z" style="fill:#444;stroke:#444;stroke-width:1.21858629337071px"/><path d="M70.67812,14.65447a1.40448,1.40448,0,1,0-1.40137-1.40454A1.403,1.403,0,0,0,70.67812,14.65447Z" style="fill:#444;stroke:#444;stroke-width:1.21858629337071px"/><path d="M65.07251,14.65447a1.40448,1.40448,0,1,0-1.40138-1.40454A1.403,1.403,0,0,0,65.07251,14.65447Z" style="fill:#444;stroke:#444;stroke-width:1.21858629337071px"/><path d="M73.48063,18.86713a1.40449,1.40449,0,1,0-1.40138-1.40442A1.40293,1.40293,0,0,0,73.48063,18.86713Z" style="fill:#444;stroke:#444;stroke-width:1.21858629337071px"/><path d="M67.875,18.86713a1.40449,1.40449,0,1,0-1.40137-1.40442A1.40293,1.40293,0,0,0,67.875,18.86713Z" style="fill:#444;stroke:#444;stroke-width:1.21858629337071px"/><path d="M59.46689,14.65447a1.40448,1.40448,0,1,0-1.40138-1.40454A1.403,1.403,0,0,0,59.46689,14.65447Z" style="fill:#444;stroke:#444;stroke-width:1.21858629337071px"/><path d="M62.27,18.86713a1.40449,1.40449,0,1,0-1.40137-1.40442A1.40293,1.40293,0,0,0,62.27,18.86713Z" style="fill:#444;stroke:#444;stroke-width:1.21858629337071px"/><path d="M53.86127,14.65447a1.40448,1.40448,0,1,0-1.40138-1.40454A1.403,1.403,0,0,0,53.86127,14.65447Z" style="fill:#444;stroke:#444;stroke-width:1.21858629337071px"/><path d="M56.66438,18.86713A1.40449,1.40449,0,1,0,55.263,17.46271,1.40293,1.40293,0,0,0,56.66438,18.86713Z" style="fill:#444;stroke:#444;stroke-width:1.21858629337071px"/><path d="M48.25626,14.65447a1.40448,1.40448,0,1,0-1.40138-1.40454A1.403,1.403,0,0,0,48.25626,14.65447Z" style="fill:#444;stroke:#444;stroke-width:1.21858629337071px"/><path d="M51.05877,18.86713a1.40449,1.40449,0,1,0-1.40138-1.40442A1.40293,1.40293,0,0,0,51.05877,18.86713Z" style="fill:#444;stroke:#444;stroke-width:1.21858629337071px"/><path d="M84.69174,23.63143V7.0811A6.47179,6.47179,0,0,0,78.23421.60929H7.06683A6.47175,6.47175,0,0,0,.60929,7.0811V23.63a6.43872,6.43872,0,0,0,2.49025,5.06737A6.44572,6.44572,0,0,0,.60929,33.76605V50.31494a6.43872,6.43872,0,0,0,2.49025,5.06737A6.44571,6.44571,0,0,0,.60929,60.451v16.5489a6.47206,6.47206,0,0,0,6.45754,6.47325H78.23275a6.4717,6.4717,0,0,0,6.45753-6.47179V60.451a6.43844,6.43844,0,0,0-2.49018-5.06724,6.438,6.438,0,0,0,2.49164-5.06737V33.76605a6.43886,6.43886,0,0,0-2.49018-5.06737A6.44063,6.44063,0,0,0,84.69174,23.63143ZM81.889,60.451v16.5489a3.66311,3.66311,0,0,1-3.65478,3.66295H7.06683A3.66109,3.66109,0,0,1,3.412,77.00137V60.451a3.66309,3.66309,0,0,1,3.65479-3.66282H78.23275A3.66339,3.66339,0,0,1,81.889,60.451Zm0-26.685V50.31494a3.66311,3.66311,0,0,1-3.65478,3.663H7.06683A3.66109,3.66109,0,0,1,3.412,50.3164V33.76605a3.6631,3.6631,0,0,1,3.65479-3.66283H78.23275A3.66339,3.66339,0,0,1,81.889,33.76605ZM7.06683,27.29426A3.66309,3.66309,0,0,1,3.412,23.63143V7.0811A3.66308,3.66308,0,0,1,7.06683,3.41823H78.23275A3.66338,3.66338,0,0,1,81.889,7.0811V23.63a3.66311,3.66311,0,0,1-3.65478,3.66295H7.06683Z" style="fill:#444;stroke:#444;stroke-width:1.21858629337071px"/><path d="M15.3236,48.3613a6.32015,6.32015,0,1,0-6.30618-6.3202A6.32086,6.32086,0,0,0,15.3236,48.3613Zm0-9.83131a3.51118,3.51118,0,1,1-3.50344,3.51111A3.51128,3.51128,0,0,1,15.3236,38.53Z" style="fill:#444;stroke:#444;stroke-width:1.21858629337071px"/><path d="M70.67812,41.33834a1.40442,1.40442,0,1,0-1.40137-1.40442A1.40293,1.40293,0,0,0,70.67812,41.33834Z" style="fill:#444;stroke:#444;stroke-width:1.21858629337071px"/><path d="M65.07251,41.33834a1.40442,1.40442,0,1,0-1.40138-1.40442A1.40293,1.40293,0,0,0,65.07251,41.33834Z" style="fill:#444;stroke:#444;stroke-width:1.21858629337071px"/><path d="M73.48063,45.55234a1.40449,1.40449,0,1,0-1.40138-1.40455A1.403,1.403,0,0,0,73.48063,45.55234Z" style="fill:#444;stroke:#444;stroke-width:1.21858629337071px"/><path d="M67.875,45.55234a1.40449,1.40449,0,1,0-1.40137-1.40455A1.403,1.403,0,0,0,67.875,45.55234Z" style="fill:#444;stroke:#444;stroke-width:1.21858629337071px"/><path d="M59.46689,41.33834a1.40442,1.40442,0,1,0-1.40138-1.40442A1.40293,1.40293,0,0,0,59.46689,41.33834Z" style="fill:#444;stroke:#444;stroke-width:1.21858629337071px"/><path d="M62.27,45.55234a1.40449,1.40449,0,1,0-1.40137-1.40455A1.403,1.403,0,0,0,62.27,45.55234Z" style="fill:#444;stroke:#444;stroke-width:1.21858629337071px"/><path d="M53.86127,41.33834a1.40442,1.40442,0,1,0-1.40138-1.40442A1.40293,1.40293,0,0,0,53.86127,41.33834Z" style="fill:#444;stroke:#444;stroke-width:1.21858629337071px"/><path d="M56.66438,45.55234A1.40449,1.40449,0,1,0,55.263,44.14779,1.403,1.403,0,0,0,56.66438,45.55234Z" style="fill:#444;stroke:#444;stroke-width:1.21858629337071px"/><path d="M48.25626,41.33834a1.40442,1.40442,0,1,0-1.40138-1.40442A1.40293,1.40293,0,0,0,48.25626,41.33834Z" style="fill:#444;stroke:#444;stroke-width:1.21858629337071px"/><path d="M51.05877,45.55234a1.40449,1.40449,0,1,0-1.40138-1.40455A1.403,1.403,0,0,0,51.05877,45.55234Z" style="fill:#444;stroke:#444;stroke-width:1.21858629337071px"/><path d="M15.3236,75.04639a6.32016,6.32016,0,1,0-6.30618-6.32008A6.32083,6.32083,0,0,0,15.3236,75.04639Zm0-9.83131a3.51118,3.51118,0,1,1-3.50344,3.51123A3.51131,3.51131,0,0,1,15.3236,65.21508Z" style="fill:#444;stroke:#444;stroke-width:1.21858629337071px"/><path d="M70.67812,68.02356A1.40449,1.40449,0,1,0,69.27675,66.619,1.403,1.403,0,0,0,70.67812,68.02356Z" style="fill:#444;stroke:#444;stroke-width:1.21858629337071px"/><path d="M65.07251,68.02356A1.40449,1.40449,0,1,0,63.67113,66.619,1.403,1.403,0,0,0,65.07251,68.02356Z" style="fill:#444;stroke:#444;stroke-width:1.21858629337071px"/><path d="M73.48063,72.23743A1.40448,1.40448,0,1,0,72.07925,70.833,1.40293,1.40293,0,0,0,73.48063,72.23743Z" style="fill:#444;stroke:#444;stroke-width:1.21858629337071px"/><path d="M67.875,72.23743A1.40448,1.40448,0,1,0,66.47364,70.833,1.40293,1.40293,0,0,0,67.875,72.23743Z" style="fill:#444;stroke:#444;stroke-width:1.21858629337071px"/><path d="M59.46689,68.02356A1.40449,1.40449,0,1,0,58.06551,66.619,1.403,1.403,0,0,0,59.46689,68.02356Z" style="fill:#444;stroke:#444;stroke-width:1.21858629337071px"/><path d="M62.27,72.23743A1.40448,1.40448,0,1,0,60.86863,70.833,1.40293,1.40293,0,0,0,62.27,72.23743Z" style="fill:#444;stroke:#444;stroke-width:1.21858629337071px"/><path d="M53.86127,68.02356A1.40449,1.40449,0,1,0,52.45989,66.619,1.403,1.403,0,0,0,53.86127,68.02356Z" style="fill:#444;stroke:#444;stroke-width:1.21858629337071px"/><path d="M56.66438,72.23743A1.40448,1.40448,0,1,0,55.263,70.833,1.40293,1.40293,0,0,0,56.66438,72.23743Z" style="fill:#444;stroke:#444;stroke-width:1.21858629337071px"/><path d="M48.25626,68.02356A1.40449,1.40449,0,1,0,46.85488,66.619,1.403,1.403,0,0,0,48.25626,68.02356Z" style="fill:#444;stroke:#444;stroke-width:1.21858629337071px"/><path d="M51.05877,72.23743A1.40448,1.40448,0,1,0,49.65739,70.833,1.40293,1.40293,0,0,0,51.05877,72.23743Z" style="fill:#444;stroke:#444;stroke-width:1.21858629337071px"/></g></g></svg>