<svg xmlns="http://www.w3.org/2000/svg" viewBox="0 0 85.30104 84.08245"><title>1_2</title><g id="Слой_2" data-name="Слой 2"><g id="Слой_1-2" data-name="Слой 1"><circle cx="15.32366" cy="15.26386" r="3.06908" style="fill:#1beddd"/><circle cx="15.32366" cy="68.63175" r="3.06908" style="fill:#ff5757"/><circle cx="15.32366" cy="41.94781" r="3.06908" style="fill:#f28d0f"/><path d="M15.32336,8.42657a6.92953,6.92953,0,1,0,6.91584,6.92952A6.93023,6.93023,0,0,0,15.32336,8.42657Zm2.89415,6.92952a2.89416,2.89416,0,1,1-2.89415-2.90188A2.90138,2.90138,0,0,1,18.21751,15.35609Z" style="fill:#444"/><path d="M72.68855,13.25034A2.01055,2.01055,0,1,0,70.678,15.26386,2.01449,2.01449,0,0,0,72.68855,13.25034Z" style="fill:#444"/><path d="M67.08293,13.25034a2.01055,2.01055,0,1,0-2.01054,2.01352A2.01449,2.01449,0,0,0,67.08293,13.25034Z" style="fill:#444"/><path d="M73.48051,15.44891A2.01382,2.01382,0,1,0,75.49106,17.463,2.01449,2.01449,0,0,0,73.48051,15.44891Z" style="fill:#444"/><path d="M67.8749,15.44891A2.01382,2.01382,0,1,0,69.88544,17.463,2.01449,2.01449,0,0,0,67.8749,15.44891Z" style="fill:#444"/><path d="M61.47732,13.25034a2.01055,2.01055,0,1,0-2.01055,2.01352A2.01449,2.01449,0,0,0,61.47732,13.25034Z" style="fill:#444"/><path d="M62.26988,15.44891A2.01382,2.01382,0,1,0,64.28042,17.463,2.01449,2.01449,0,0,0,62.26988,15.44891Z" style="fill:#444"/><path d="M55.8717,13.25034a2.01055,2.01055,0,1,0-2.01055,2.01352A2.01449,2.01449,0,0,0,55.8717,13.25034Z" style="fill:#444"/><path d="M56.66426,15.44891A2.01382,2.01382,0,1,0,58.67481,17.463,2.01449,2.01449,0,0,0,56.66426,15.44891Z" style="fill:#444"/><path d="M50.26668,13.25034a2.01055,2.01055,0,1,0-2.01055,2.01352A2.01449,2.01449,0,0,0,50.26668,13.25034Z" style="fill:#444"/><path d="M51.05864,15.44891A2.01382,2.01382,0,1,0,53.06919,17.463,2.01449,2.01449,0,0,0,51.05864,15.44891Z" style="fill:#444"/><path d="M78.23407,0H7.067A7.08222,7.08222,0,0,0,0,7.08125V23.63034a7.0024,7.0024,0,0,0,2.173,5.06713A7.0114,7.0114,0,0,0,0,33.76638v16.5485A7.00372,7.00372,0,0,0,2.173,55.3826,7.00909,7.00909,0,0,0,0,60.45092V77a7.08286,7.08286,0,0,0,7.067,7.08244H78.23288a7.08171,7.08171,0,0,0,7.067-7.08065V60.45092a7.00347,7.00347,0,0,0-2.173-5.06713A7.00025,7.00025,0,0,0,85.301,50.31666V33.76638a7.00677,7.00677,0,0,0-2.173-5.06772,7.00345,7.00345,0,0,0,2.173-5.06713V7.08125A7.08222,7.08222,0,0,0,78.23407,0Zm0,26.68394L7.067,26.68513a3.053,3.053,0,0,1-3.04587-3.0536V7.08125A3.053,3.053,0,0,1,7.067,4.02764H78.23288a3.05361,3.05361,0,0,1,3.04706,3.05361V23.63034A3.053,3.053,0,0,1,78.23407,26.68394Zm0,26.68514H7.06459A3.05236,3.05236,0,0,1,4.0211,50.31666V33.76638A3.053,3.053,0,0,1,7.067,30.71278H78.23288a3.05361,3.05361,0,0,1,3.04706,3.0536v16.5485A3.05349,3.05349,0,0,1,78.23407,53.36908ZM4.0211,60.45092a3.05285,3.05285,0,0,1,3.04587-3.053H78.23288a3.05348,3.05348,0,0,1,3.04706,3.053V77a3.053,3.053,0,0,1-3.04587,3.05361H7.06459A3.05133,3.05133,0,0,1,4.0211,77.0018Z" style="fill:#444"/><path d="M15.32336,35.11171a6.92953,6.92953,0,1,0,6.91584,6.92952A6.93023,6.93023,0,0,0,15.32336,35.11171Zm2.89415,6.92952a2.89416,2.89416,0,1,1-2.89415-2.90188A2.90138,2.90138,0,0,1,18.21751,42.04123Z" style="fill:#444"/><path d="M72.68855,39.93428A2.01055,2.01055,0,1,0,70.678,41.94781,2.01449,2.01449,0,0,0,72.68855,39.93428Z" style="fill:#444"/><path d="M67.08293,39.93428a2.01055,2.01055,0,1,0-2.01054,2.01353A2.01449,2.01449,0,0,0,67.08293,39.93428Z" style="fill:#444"/><path d="M73.48051,42.13405a2.01382,2.01382,0,1,0,2.01055,2.01412A2.01449,2.01449,0,0,0,73.48051,42.13405Z" style="fill:#444"/><path d="M67.8749,42.13405a2.01382,2.01382,0,1,0,2.01054,2.01412A2.01449,2.01449,0,0,0,67.8749,42.13405Z" style="fill:#444"/><path d="M61.47732,39.93428a2.01055,2.01055,0,1,0-2.01055,2.01353A2.01449,2.01449,0,0,0,61.47732,39.93428Z" style="fill:#444"/><path d="M62.26988,42.13405a2.01382,2.01382,0,1,0,2.01054,2.01412A2.01449,2.01449,0,0,0,62.26988,42.13405Z" style="fill:#444"/><path d="M55.8717,39.93428a2.01055,2.01055,0,1,0-2.01055,2.01353A2.01449,2.01449,0,0,0,55.8717,39.93428Z" style="fill:#444"/><path d="M56.66426,42.13405a2.01382,2.01382,0,1,0,2.01055,2.01412A2.01449,2.01449,0,0,0,56.66426,42.13405Z" style="fill:#444"/><path d="M50.26668,39.93428a2.01055,2.01055,0,1,0-2.01055,2.01353A2.01449,2.01449,0,0,0,50.26668,39.93428Z" style="fill:#444"/><path d="M51.05864,42.13405a2.01382,2.01382,0,1,0,2.01055,2.01412A2.01449,2.01449,0,0,0,51.05864,42.13405Z" style="fill:#444"/><path d="M15.32336,75.65588a6.92953,6.92953,0,1,0-6.91523-6.92952A6.93037,6.93037,0,0,0,15.32336,75.65588Zm-2.89414-6.92952a2.89416,2.89416,0,1,1,2.89414,2.90188A2.90138,2.90138,0,0,1,12.42922,68.72636Z" style="fill:#444"/><path d="M70.678,68.63294a2.01382,2.01382,0,1,0-2.01055-2.01352A2.01437,2.01437,0,0,0,70.678,68.63294Z" style="fill:#444"/><path d="M65.07239,68.63294a2.01382,2.01382,0,1,0-2.01055-2.01352A2.01436,2.01436,0,0,0,65.07239,68.63294Z" style="fill:#444"/><path d="M71.47,70.8333a2.01055,2.01055,0,1,0,2.01055-2.01412A2.01437,2.01437,0,0,0,71.47,70.8333Z" style="fill:#444"/><path d="M65.86435,70.8333a2.01055,2.01055,0,1,0,2.01055-2.01412A2.01437,2.01437,0,0,0,65.86435,70.8333Z" style="fill:#444"/><path d="M59.46677,68.63294a2.01382,2.01382,0,1,0-2.01055-2.01352A2.01437,2.01437,0,0,0,59.46677,68.63294Z" style="fill:#444"/><path d="M60.25933,70.8333a2.01055,2.01055,0,1,0,2.01055-2.01412A2.01437,2.01437,0,0,0,60.25933,70.8333Z" style="fill:#444"/><path d="M53.86115,68.63294a2.01382,2.01382,0,1,0-2.01054-2.01352A2.01437,2.01437,0,0,0,53.86115,68.63294Z" style="fill:#444"/><path d="M54.65371,70.8333a2.01055,2.01055,0,1,0,2.01055-2.01412A2.01437,2.01437,0,0,0,54.65371,70.8333Z" style="fill:#444"/><path d="M48.25613,68.63294a2.01382,2.01382,0,1,0-2.01054-2.01352A2.01437,2.01437,0,0,0,48.25613,68.63294Z" style="fill:#444"/><path d="M49.0481,70.8333a2.01055,2.01055,0,1,0,2.01054-2.01412A2.01436,2.01436,0,0,0,49.0481,70.8333Z" style="fill:#444"/></g></g></svg>