<svg xmlns="http://www.w3.org/2000/svg" viewBox="0 0 83.65999 83.65999"><title>2_1</title><g id="Слой_2" data-name="Слой 2"><g id="Слой_1-2" data-name="Слой 1"><rect x="33.08324" y="19.57626" width="33.3111" height="8.23418" transform="translate(-2.83424 7.21917) rotate(-8.07226)" style="fill:#1beddd"/><ellipse cx="23.10979" cy="63.296" rx="8.72401" ry="7.51639" style="fill:#1beddd"/><ellipse cx="56.42685" cy="53.81266" rx="8.72401" ry="7.51639" style="fill:#1beddd"/><path d="M64.43751,0h-45.215A19.24394,19.24394,0,0,0,0,19.22248v45.215A19.24394,19.24394,0,0,0,19.22248,83.66h45.215A19.24393,19.24393,0,0,0,83.66,64.43751v-45.215A19.24394,19.24394,0,0,0,64.43751,0Zm14.8658,19.22248v45.215a14.88282,14.88282,0,0,1-14.8658,14.8658h-45.215a14.88282,14.88282,0,0,1-14.8658-14.8658v-45.215a14.88282,14.88282,0,0,1,14.8658-14.8658h45.215A14.88282,14.88282,0,0,1,79.30331,19.22248Z" style="fill:#444"/><path d="M65.94705,13.52762,32.39726,17.88311A2.1851,2.1851,0,0,0,30.501,20.0442V55.26538a12.9347,12.9347,0,0,0-7.73457-2.53951c-6.66712,0-12.09126,4.88684-12.09126,10.89409,0,6.00546,5.42414,10.89111,12.09126,10.89111s12.09126-4.88624,12.09126-10.8929V33.069l29.19489-3.79261V45.42566a12.56032,12.56032,0,0,0-7.62628-2.50441c-6.607,0-11.98177,4.88684-11.98177,10.89409,0,6.00606,5.37475,10.8923,11.98177,10.8923,6.60762,0,11.983-4.88624,11.983-10.8923V15.68692a2.17775,2.17775,0,0,0-2.46217-2.1593Zm-1.89452,4.6405v6.71413L34.85764,28.67486V21.959ZM30.501,63.61817c0,3.6034-3.47011,6.53563-7.73457,6.53563s-7.73457-2.93223-7.73457-6.53563c0-3.60458,3.47011-6.5374,7.73457-6.5374S30.501,60.01359,30.501,63.61817Zm33.55158-9.80462c0,3.6034-3.42132,6.53562-7.62628,6.53562-4.20436,0-7.62508-2.93222-7.62508-6.53562,0-3.60458,3.42072-6.5374,7.62508-6.5374C60.63121,47.27615,64.05253,50.209,64.05253,53.81355Z" style="fill:#444"/></g></g></svg>