<svg xmlns="http://www.w3.org/2000/svg" viewBox="0 0 83.66054 83.66054"><title>2_0</title><g id="Слой_2" data-name="Слой 2"><g id="Слой_1-2" data-name="Слой 1"><path d="M64.43783.6536H19.22271A18.5899,18.5899,0,0,0,.6536,19.22271V64.43783A18.58987,18.58987,0,0,0,19.22271,83.00694H64.43783A18.58985,18.58985,0,0,0,83.00694,64.43783V19.22271A18.58987,18.58987,0,0,0,64.43783.6536Zm15.519,63.78423a15.53584,15.53584,0,0,1-15.519,15.519H19.22271a15.53578,15.53578,0,0,1-15.519-15.519V19.22271a15.53574,15.53574,0,0,1,15.519-15.519H64.43783a15.5358,15.5358,0,0,1,15.519,15.519Z" style="fill:#444;stroke:#444;stroke-width:1.30719593225533px"/><path d="M66.03431,14.17576,32.4829,18.53133a1.52545,1.52545,0,0,0-1.32824,1.513V56.6808a12.03542,12.03542,0,0,0-8.38788-3.30172c-6.30761,0-11.438,4.59493-11.438,10.24071s5.13036,10.23783,11.438,10.23783,11.438-4.59349,11.438-10.23927V32.4948l30.5012-3.96211V46.84715a11.86409,11.86409,0,0,0-8.27952-3.27269c-6.2467,0-11.32816,4.59492-11.32816,10.2407s5.083,10.23927,11.32816,10.23927c6.24669,0,11.32973-4.59349,11.32973-10.23927v-38.128a1.52428,1.52428,0,0,0-1.72184-1.51138ZM22.76678,70.8074c-4.62551,0-8.38789-3.22393-8.38789-7.18905s3.76238-7.19075,8.38789-7.19075,8.38788,3.2255,8.38788,7.19075S27.39229,70.8074,22.76678,70.8074Zm11.438-41.38856v-8.034l30.5012-3.96067v8.03259ZM56.42642,61.00278c-4.56447,0-8.27808-3.22394-8.27808-7.18905S51.862,46.623,56.42642,46.623s8.27952,3.22708,8.27952,7.19076S60.99088,61.00278,56.42642,61.00278Z" style="fill:#444;stroke:#444;stroke-width:1.30719593225533px"/></g></g></svg>