<svg xmlns="http://www.w3.org/2000/svg" viewBox="0 0 109.49698 148.42238"><title>3_2</title><g id="Слой_2" data-name="Слой 2"><g id="Слой_1-2" data-name="Слой 1"><circle cx="52.97208" cy="68.43778" r="6.15303" style="fill:#1beddd"/><circle cx="44.82219" cy="98.73762" r="6.15303" style="fill:#ff433e"/><circle cx="78.4666" cy="108.55949" r="6.15303" style="fill:#f28d0f"/><polygon points="45.114 35.623 54.748 31.358 67.251 36.841 64.969 23.945 73.141 14.805 60.651 12.774 54.749 3.432 48.871 13.587 36.685 15.414 44.911 23.945 43.387 35.115 45.114 35.623" style="fill:#ff433e"/><path d="M88.53124,110.48674l.0589-.38973a10.24745,10.24745,0,0,0,.116-1.53752c0-.33321-.01725-.66165-.04879-.98712l-.078-.80208H97.632a2.40312,2.40312,0,0,0,1.71958-4.08238L76.2228,79.00223h6.36307A2.40326,2.40326,0,0,0,84.531,75.1876L58.10942,38.777l.952-1.06626,6.488,3.67a2.44091,2.44091,0,0,0,2.596-.147,2.4108,2.4108,0,0,0,.9425-2.42348L66.61453,26.64943l9.14952-8.38551a2.403,2.403,0,0,0-1.35187-4.15914L62.08232,12.69817,56.93546,1.40661A2.40364,2.40364,0,0,0,52.56152,1.406L47.41347,12.69817,35.08362,14.10478a2.40314,2.40314,0,0,0-1.35187,4.15914l9.14891,8.38492L40.40779,38.81031a2.40336,2.40336,0,0,0,3.53854,2.57045l6.488-3.67.952,1.06626L24.96542,75.1876a2.40325,2.40325,0,0,0,1.9451,3.81463h6.36307L10.14484,102.6885a2.40313,2.40313,0,0,0,1.71959,4.08179H25.10109L.79541,128.612a2.40287,2.40287,0,0,0,1.60653,4.19067H39.02379v13.21643a2.40556,2.40556,0,0,0,2.40266,2.40326H68.07053a2.40556,2.40556,0,0,0,2.40266-2.40326V132.80269H107.095a2.40287,2.40287,0,0,0,1.60654-4.19067ZM46.1693,34.60237l1.69281-8.32779a2.4151,2.4151,0,0,0-.73127-2.25034l-6.26429-5.74069,8.44323-.96332a2.41385,2.41385,0,0,0,1.91415-1.39055l3.52486-7.73219,3.52486,7.7316a2.4133,2.4133,0,0,0,1.91415,1.39114l8.44323.96332-6.26548,5.74069a2.41774,2.41774,0,0,0-.73068,2.25093l1.69281,8.3272-7.396-4.18353a2.44264,2.44264,0,0,0-2.36636-.0006Zm8.57949,7.72684L64.96932,56.41316l-.739.39569A41.564,41.564,0,0,1,58.2671,59.396l-.2981.10354-.27966-.14578a10.21244,10.21244,0,0,0-12.72375,2.71147l-.1916.24039-.30583.03094c-1.05674.10829-2.04209.18743-2.93639.24217l-1.54763.09579Zm3.65635,26.10857a5.43306,5.43306,0,1,1-5.43306-5.43306A5.4391,5.4391,0,0,1,58.40514,68.43778ZM17.5712,101.96437,40.69935,78.2787a2.40346,2.40346,0,0,0-1.719-4.083H31.62421l4.85293-6.68735.3808.00654c.24039.00417.53671.00774.883.00774.908,0,2.37827-.0238,4.2234-.13864l.79792-.05-.02975,1.10315a10.23958,10.23958,0,1,0,20.47915,0,10.10776,10.10776,0,0,0-1.05615-4.52269l-.34689-.70092.72234-.2987A43.8152,43.8152,0,0,0,67.23632,60.639l.56765-.31953,10.0688,13.87689H70.51722a2.38779,2.38779,0,0,0-2.03613,1.12993A71.43786,71.43786,0,0,1,53.10893,91.654l-.51468.39687-.45459-.4647a10.23228,10.23228,0,0,0-17.55645,7.15265,10.30193,10.30193,0,0,0,.14459,1.70233l.11067.65749-.6444.17077c-.96213.25466-1.97187.48434-3.00124.68188l-.06843.01309Zm32.68405-3.22675a5.43306,5.43306,0,1,1-5.43306-5.43307A5.4391,5.4391,0,0,1,50.25525,98.73762ZM8.67159,127.99618l17.04533-15.31682.4421.21361c5.13734,2.48418,18.5043,8.79131,31.64873,13.68649l-.25526,1.41672Zm56.99509,15.61968h-21.837V132.80269h21.837ZM81.05847,127.9944c-12.52264-.87943-39.47434-13.10576-50.48029-18.32164l-.99308-.47006,2.8995-2.60437.194-.03987c1.32034-.27073,2.65852-.60274,3.97766-.98653l.42841-.12435.30644.32368a10.148,10.148,0,0,0,7.43171,3.20653A10.22966,10.22966,0,0,0,54.891,96.88356l-.08152-.44686.36415-.27132A77.42018,77.42018,0,0,0,70.328,81.05086l.51231-.68069,21.08606,21.59361H86.29815l-.21777-.24218a10.23692,10.23692,0,1,0-7.61319,17.07747,10.1399,10.1399,0,0,0,7.45611-3.2339l.48969-.52063,14.4124,12.95164Zm2.84119-19.43491a5.43307,5.43307,0,1,1-5.43306-5.43306A5.4391,5.4391,0,0,1,83.89966,108.55949Z" style="fill:#444"/></g></g></svg>