<svg width="48" height="48" viewBox="0 0 48 48" fill="none" xmlns="http://www.w3.org/2000/svg">
<path d="M24.035 23.873C24.024 23.873 24.0115 23.8725 24 23.872C23.988 23.8725 23.9755 23.873 23.9645 23.873C20.986 23.873 18.3615 23.119 16.8105 24.543C15.881 25.3975 15.4895 26.427 15.4895 27.5355C15.4895 32.166 19.1995 32.7345 23.964 32.7345H24.035C28.7995 32.7345 32.5095 32.1655 32.5095 27.5355C32.5095 26.4265 32.118 25.3975 31.1885 24.543C29.6375 23.119 27.0135 23.873 24.035 23.873ZM19.984 30.2005C19.0775 30.2005 18.3425 29.1825 18.3425 27.927C18.3425 26.6715 19.0775 25.654 19.984 25.654C20.8905 25.654 21.6265 26.6715 21.6265 27.927C21.6265 29.1825 20.8905 30.2005 19.984 30.2005ZM28.0155 30.2005C27.1085 30.2005 26.373 29.1825 26.373 27.927C26.373 26.6715 27.1085 25.654 28.0155 25.654C28.9215 25.654 29.657 26.6715 29.657 27.927C29.657 29.1825 28.922 30.2005 28.0155 30.2005ZM24 0C10.7445 0 0 10.745 0 24C0 37.255 10.7445 48 24 48C37.2545 48 48 37.255 48 24C48 10.745 37.2545 0 24 0ZM26.189 33.8505C25.759 33.8505 24.904 33.8515 24 33.8525C23.0955 33.8515 22.24 33.8505 21.8105 33.8505C19.909 33.8505 12.379 33.705 12.379 24.628C12.379 22.5395 13.095 21.0115 14.2665 19.739C14.0795 19.2775 14.07 16.6565 15.0675 14.1475C15.0675 14.1475 17.3555 14.3985 20.8175 16.774C21.543 16.5735 22.7715 16.4735 24 16.4735C25.2275 16.4735 26.456 16.573 27.1825 16.774C30.644 14.3985 32.9315 14.1475 32.9315 14.1475C33.929 16.6565 33.92 19.2775 33.733 19.739C34.905 21.0115 35.621 22.54 35.621 24.628C35.621 33.705 28.0905 33.8505 26.189 33.8505Z" fill="black"/>
</svg>
