<svg width="78" height="96" viewBox="0 0 78 96" fill="none" xmlns="http://www.w3.org/2000/svg">
<path d="M57.0527 23.9373C56.2761 23.9373 55.6465 23.3077 55.6465 22.5311V12.572C55.6465 10.8911 57.0141 9.52344 58.695 9.52344H67.111C67.8876 9.52344 68.5172 10.1531 68.5172 10.9297C68.5172 11.7063 67.8876 12.3359 67.111 12.3359H58.695C58.5649 12.3359 58.459 12.4419 58.459 12.572V22.5311C58.459 23.3077 57.8294 23.9373 57.0527 23.9373Z" fill="#B0D1CF"/>
<path d="M20.1769 23.9373C19.4003 23.9373 18.7707 23.3077 18.7707 22.5311V12.572C18.7707 12.4419 18.6647 12.3359 18.5346 12.3359H10.1187C9.34203 12.3359 8.7124 11.7063 8.7124 10.9297C8.7124 10.1531 9.34203 9.52344 10.1187 9.52344H18.5346C20.2155 9.52344 21.5832 10.8911 21.5832 12.572V22.5311C21.5831 23.3077 20.9535 23.9373 20.1769 23.9373Z" fill="#B0D1CF"/>
<path d="M38.6147 23.9375C37.8381 23.9375 37.2085 23.3079 37.2085 22.5313V10.394C37.2085 9.61742 37.8381 8.98779 38.6147 8.98779C39.3914 8.98779 40.021 9.61742 40.021 10.394V22.5313C40.021 23.3079 39.3914 23.9375 38.6147 23.9375Z" fill="#B0D1CF"/>
<path d="M18.5346 86.4774H10.1187C9.34203 86.4774 8.7124 85.8477 8.7124 85.0711C8.7124 84.2945 9.34203 83.6649 10.1187 83.6649H18.5346C18.6647 83.6649 18.7707 83.5589 18.7707 83.4288V73.4697C18.7707 72.6931 19.4003 72.0635 20.1769 72.0635C20.9535 72.0635 21.5832 72.6931 21.5832 73.4697V83.4288C21.5832 85.1097 20.2155 86.4774 18.5346 86.4774Z" fill="#B0D1CF"/>
<path d="M67.111 86.4774H58.695C57.0141 86.4774 55.6465 85.1097 55.6465 83.4288V73.4697C55.6465 72.6931 56.2761 72.0635 57.0527 72.0635C57.8294 72.0635 58.459 72.6931 58.459 73.4697V83.4288C58.459 83.5589 58.5649 83.6649 58.695 83.6649H67.111C67.8876 83.6649 68.5172 84.2945 68.5172 85.0711C68.5172 85.8477 67.8878 86.4774 67.111 86.4774Z" fill="#B0D1CF"/>
<path d="M38.6147 87.0127C37.8381 87.0127 37.2085 86.3831 37.2085 85.6065V73.4692C37.2085 72.6926 37.8381 72.063 38.6147 72.063C39.3914 72.063 40.021 72.6926 40.021 73.4692V85.6065C40.021 86.3831 39.3914 87.0127 38.6147 87.0127Z" fill="#B0D1CF"/>
<path d="M68.8108 24.465V72.8439C68.8108 73.4529 68.3179 73.946 67.7087 73.946H9.52107C8.91207 73.946 8.41895 73.4531 8.41895 72.8439V24.465C8.41895 23.133 9.4982 22.0537 10.8281 22.0537H66.3994C67.7295 22.0537 68.8108 23.133 68.8108 24.465Z" fill="#DCF9F7"/>
<path d="M68.8108 24.465V34.0561H8.41895V24.465C8.41895 23.133 9.4982 22.0537 10.8281 22.0537H66.3994C67.7295 22.0537 68.8108 23.133 68.8108 24.465Z" fill="#B0D1CF"/>
<path d="M68.8099 31.1568H8.41895V24.4649C8.41895 23.1336 9.49819 22.0542 10.8296 22.0542H66.3994C67.7306 22.0542 68.8101 23.1334 68.8101 24.4649V31.1568H68.8099Z" fill="#5089DD"/>
<path d="M45.6882 28.2224H16.5185C15.7184 28.2224 15.0698 27.5739 15.0698 26.7738C15.0698 25.9738 15.7184 25.3252 16.5185 25.3252H45.6882C46.4883 25.3252 47.1368 25.9738 47.1368 26.7738C47.1368 27.5739 46.4883 28.2224 45.6882 28.2224Z" fill="#DCF9F7"/>
<path d="M51.8173 28.1331C51.0172 28.1331 50.3687 27.4846 50.3687 26.6845V26.5263C50.3687 25.7262 51.0172 25.0776 51.8173 25.0776C52.6173 25.0776 53.2659 25.7262 53.2659 26.5263V26.6845C53.2659 27.4846 52.6173 28.1331 51.8173 28.1331Z" fill="#14C4BB"/>
<path d="M56.2636 28.1331C55.4635 28.1331 54.8149 27.4846 54.8149 26.6845V26.5263C54.8149 25.7262 55.4635 25.0776 56.2636 25.0776C57.0636 25.0776 57.7122 25.7262 57.7122 26.5263V26.6845C57.7122 27.4846 57.0636 28.1331 56.2636 28.1331Z" fill="#F96982"/>
<path d="M60.7099 28.1331C59.9098 28.1331 59.2612 27.4846 59.2612 26.6845V26.5263C59.2612 25.7262 59.9098 25.0776 60.7099 25.0776C61.5099 25.0776 62.1585 25.7262 62.1585 26.5263V26.6845C62.1585 27.4846 61.5099 28.1331 60.7099 28.1331Z" fill="#F9B767"/>
<path d="M75.4829 14.4392H69.7171C68.7526 14.4392 67.9707 13.6574 67.9707 12.6929V6.92704C67.9707 5.96254 68.7526 5.18066 69.7171 5.18066H75.4829C76.4474 5.18066 77.2293 5.96254 77.2293 6.92704V12.6929C77.2295 13.6574 76.4474 14.4392 75.4829 14.4392Z" fill="#FF433E"/>
<path d="M1.74637 14.4392H7.51219C8.47669 14.4392 9.25856 13.6574 9.25856 12.6929V6.92704C9.25856 5.96254 8.47669 5.18066 7.51219 5.18066H1.74637C0.781875 5.18066 3.37079e-08 5.96254 3.37079e-08 6.92704V12.6929C-0.000187466 13.6574 0.781875 14.4392 1.74637 14.4392Z" fill="#FF433E"/>
<path d="M33.9854 1.74638V7.51219C33.9854 8.47669 34.7672 9.25856 35.7317 9.25856H41.4975C42.462 9.25856 43.2439 8.47669 43.2439 7.51219V1.74638C43.2439 0.781875 42.462 0 41.4975 0H35.7317C34.7672 0 33.9854 0.781875 33.9854 1.74638Z" fill="#14C4BB"/>
<path d="M1.74637 81.5605H7.51219C8.47669 81.5605 9.25856 82.3424 9.25856 83.3069V89.0727C9.25856 90.0372 8.47669 90.8191 7.51219 90.8191H1.74637C0.781875 90.8191 3.37079e-08 90.0372 3.37079e-08 89.0727V83.3069C-0.000187466 82.3424 0.781875 81.5605 1.74637 81.5605Z" fill="#FF433E"/>
<path d="M75.4829 81.5605H69.7171C68.7526 81.5605 67.9707 82.3424 67.9707 83.3069V89.0727C67.9707 90.0372 68.7526 90.8191 69.7171 90.8191H75.4829C76.4474 90.8191 77.2293 90.0372 77.2293 89.0727V83.3069C77.2295 82.3424 76.4474 81.5605 75.4829 81.5605Z" fill="#FF433E"/>
<path d="M43.2439 94.2534V88.4876C43.2439 87.5231 42.462 86.7412 41.4975 86.7412H35.7317C34.7672 86.7412 33.9854 87.5231 33.9854 88.4876V94.2534C33.9854 95.2179 34.7672 95.9998 35.7317 95.9998H41.4975C42.462 95.9998 43.2439 95.2179 43.2439 94.2534Z" fill="#14C4BB"/>
<path d="M24.694 59.9504C24.3233 59.9504 23.9524 59.8089 23.6697 59.5261L17.2281 53.0846C16.6622 52.5189 16.6622 51.6016 17.2281 51.0358L23.6697 44.5942C24.2354 44.0285 25.1526 44.0285 25.7185 44.5942C26.2844 45.1599 26.2844 46.0771 25.7185 46.643L20.3012 52.0602L25.7185 57.4775C26.2844 58.0432 26.2844 58.9604 25.7185 59.5263C25.4354 59.8089 25.0647 59.9504 24.694 59.9504Z" fill="#2358C1"/>
<path d="M52.5351 59.9496C52.1645 59.9496 51.7936 59.8081 51.5108 59.5253C50.945 58.9596 50.945 58.0424 51.5108 57.4765L56.9281 52.0593L51.5108 46.642C50.945 46.0763 50.945 45.1591 51.5108 44.5932C52.0765 44.0275 52.9938 44.0275 53.5596 44.5932L60.0012 51.0348C60.5671 51.6005 60.5671 52.5177 60.0012 53.0836L53.5596 59.5252C53.2767 59.8081 52.906 59.9496 52.5351 59.9496Z" fill="#2358C1"/>
<path d="M30.1572 59.9497C29.927 59.9497 29.6934 59.8946 29.476 59.7787C28.7703 59.4016 28.5037 58.524 28.8805 57.8184L35.3045 45.791C35.6815 45.0851 36.559 44.8186 37.2648 45.1955C37.9705 45.5726 38.2372 46.4503 37.8603 47.1558L31.4364 59.1832C31.1755 59.6718 30.6747 59.9497 30.1572 59.9497Z" fill="#2358C1"/>
<path d="M38.2055 59.7901C37.4054 59.7901 36.7568 59.1415 36.7568 58.3415V58.1952C36.7568 57.3951 37.4054 56.7466 38.2055 56.7466C39.0055 56.7466 39.6541 57.3951 39.6541 58.1952V58.3415C39.6543 59.1415 39.0055 59.7901 38.2055 59.7901Z" fill="#2358C1"/>
<path d="M42.9237 59.7901C42.1237 59.7901 41.4751 59.1415 41.4751 58.3415V58.1952C41.4751 57.3951 42.1237 56.7466 42.9237 56.7466C43.7238 56.7466 44.3723 57.3951 44.3723 58.1952V58.3415C44.3725 59.1415 43.724 59.7901 42.9237 59.7901Z" fill="#2358C1"/>
<path d="M47.642 59.7901C46.8419 59.7901 46.1934 59.1415 46.1934 58.3415V58.1952C46.1934 57.3951 46.8419 56.7466 47.642 56.7466C48.442 56.7466 49.0906 57.3951 49.0906 58.1952V58.3415C49.0906 59.1415 48.442 59.7901 47.642 59.7901Z" fill="#2358C1"/>
</svg>
