<svg width="72" height="113" viewBox="0 0 72 113" fill="none" xmlns="http://www.w3.org/2000/svg">
<path d="M72 0H0V95.8112H72V0Z" fill="#EDEEF0"/>
<path opacity="0.4" d="M38.2461 8.24414H9.44336V10.7007H38.2461V8.24414Z" fill="#5B5B5F"/>
<path opacity="0.4" d="M62.5564 18.4258H9.44336V20.8823H62.5564V18.4258Z" fill="#5B5B5F"/>
<path opacity="0.4" d="M62.5564 28.6064H9.44336V31.063H62.5564V28.6064Z" fill="#5B5B5F"/>
<path opacity="0.4" d="M62.5564 38.7871H9.44336V41.2436H62.5564V38.7871Z" fill="#5B5B5F"/>
<path opacity="0.4" d="M62.5564 48.9678H9.44336V51.4243H62.5564V48.9678Z" fill="#5B5B5F"/>
<path opacity="0.4" d="M62.5564 59.1484H9.44336V61.605H62.5564V59.1484Z" fill="#5B5B5F"/>
<path opacity="0.4" d="M62.5564 69.3291H9.44336V71.7856H62.5564V69.3291Z" fill="#5B5B5F"/>
<path opacity="0.4" d="M62.5564 79.5098H9.44336V81.9663H62.5564V79.5098Z" fill="#5B5B5F"/>
<path d="M61.4789 113L54.0101 107.292L46.1855 113V93.0215H61.4789V113Z" fill="#C8523B"/>
<path d="M64.4533 89.4003C64.4533 95.351 59.6436 100.177 53.7091 100.177C47.7746 100.177 42.9648 95.351 42.9648 89.4003C42.9648 83.4482 47.7746 78.6221 53.7091 78.6221C59.6436 78.6223 64.4533 83.4482 64.4533 89.4003Z" fill="#E5C400"/>
<path opacity="0.3" d="M64.4532 89.401C64.4532 83.4489 59.6435 78.623 53.709 78.623V93.0217V100.178V107.422L53.8868 107.292L61.3558 113V96.9691C63.2706 95.023 64.4532 92.3506 64.4532 89.401Z" fill="#5B5B5F"/>
</svg>
