<svg xmlns="http://www.w3.org/2000/svg" viewBox="0 0 67.13537 84.51517"><title>5</title><g id="Слой_2" data-name="Слой 2"><g id="Слой_1-2" data-name="Слой 1"><path d="M66.52414,5.73458h.00045A5.16409,5.16409,0,0,0,61.37252.60929H9.23839a8.63887,8.63887,0,0,0-8.6291,8.629v66.039a8.63849,8.63849,0,0,0,8.6291,8.62858h8.25395L60.07,83.90536a2.98414,2.98414,0,0,0,2.98109-2.981V69.72092a5.19315,5.19315,0,0,0,3.475-4.87ZM3.9645,9.23832a5.25335,5.25335,0,0,1,3.59625-4.9996V14.67785A8.55739,8.55739,0,0,0,3.9645,16.31838Zm0,13.90336a5.2525,5.2525,0,0,1,3.59625-4.99959v8.70065a8.56189,8.56189,0,0,0-3.59625,1.641Zm0,12.16541A5.25341,5.25341,0,0,1,7.56075,30.3075v8.70065A8.56,8.56,0,0,0,3.9645,40.64867Zm0,12.165a5.25344,5.25344,0,0,1,3.59625-4.99967v8.70117A8.55989,8.55989,0,0,0,3.9645,52.81408Zm0,12.16585A5.25357,5.25357,0,0,1,7.56075,54.6378V66.813A8.5564,8.5564,0,0,0,3.9645,68.454ZM59.69592,78.31782a2.235,2.235,0,0,1-2.23241,2.23241L9.3504,80.55068a5.46774,5.46774,0,0,1-3.87346-1.63175,5.16971,5.16971,0,0,1-1.512-3.73319A5.29755,5.29755,0,0,1,9.23787,70.003H59.69592Zm3.475-13.46745a1.806,1.806,0,0,1-1.811,1.79791H10.91544V3.9645H61.31406a1.969,1.969,0,0,1,1.39851.60542A1.60992,1.60992,0,0,1,63.17139,5.776Zm2.98-59.11088.0508-.00342h.00728Z" style="fill:#444;stroke:#444;stroke-miterlimit:10;stroke-width:1.21858629337071px"/><path d="M45.79643,30.84918H26.41991a1.33707,1.33707,0,0,0,0,2.67414H45.79643a1.33707,1.33707,0,0,0,0-2.67414Z" style="fill:#444;stroke:#444;stroke-miterlimit:10;stroke-width:1.21858629337071px"/><path d="M45.79643,39.184H26.41991a1.33711,1.33711,0,0,0,0,2.67421H45.79643a1.33711,1.33711,0,0,0,0-2.67421Z" style="fill:#444;stroke:#444;stroke-miterlimit:10;stroke-width:1.21858629337071px"/></g></g></svg>