<svg width="71" height="70" xmlns="http://www.w3.org/2000/svg" xmlns:svg="http://www.w3.org/2000/svg">
    <g>
        <path id="svg_1" stroke="#444444" fill="#444444" d="m13.0749,7.91504c-2.8531,0 -5.175,2.32696 -5.175,5.18646c0,2.8594 2.3219,5.1864 5.175,5.1864c2.8532,0 5.175,-2.327 5.175,-5.1864c0,-2.8595 -2.3218,-5.18646 -5.175,-5.18646zm0,8.06776c-1.5847,0 -2.875,-1.292 -2.875,-2.8813c0,-1.5894 1.2903,-2.8814 2.875,-2.8814c1.5847,0 2.875,1.292 2.875,2.8814c0,1.5893 -1.2903,2.8813 -2.875,2.8813z"/>
        <path id="svg_2" stroke="#444444" fill="#444444" d="m58.5001,12.5258c0.6351,0 1.15,-0.516 1.15,-1.1526c0,-0.6365 -0.5149,-1.1525 -1.15,-1.1525c-0.6351,0 -1.15,0.516 -1.15,1.1525c0,0.6366 0.5149,1.1526 1.15,1.1526z"/>
        <path id="svg_3" stroke="#444444" fill="#444444" d="m53.9,12.5258c0.6351,0 1.15,-0.516 1.15,-1.1526c0,-0.6365 -0.5149,-1.1525 -1.15,-1.1525c-0.6351,0 -1.15,0.516 -1.15,1.1525c0,0.6366 0.5149,1.1526 1.15,1.1526z"/>
        <path id="svg_4" stroke="#444444" fill="#444444" d="m60.7999,15.9828c0.6351,0 1.15,-0.516 1.15,-1.1525c0,-0.6366 -0.5149,-1.1526 -1.15,-1.1526c-0.6351,0 -1.15,0.516 -1.15,1.1526c0,0.6365 0.5149,1.1525 1.15,1.1525z"/>
        <path id="svg_5" stroke="#444444" fill="#444444" d="m56.1998,15.9828c0.6351,0 1.15,-0.516 1.15,-1.1525c0,-0.6366 -0.5149,-1.1526 -1.15,-1.1526c-0.6351,0 -1.15,0.516 -1.15,1.1526c0,0.6365 0.5149,1.1525 1.15,1.1525z"/>
        <path id="svg_6" stroke="#444444" fill="#444444" d="m49.2999,12.5258c0.6351,0 1.15,-0.516 1.15,-1.1526c0,-0.6365 -0.5149,-1.1525 -1.15,-1.1525c-0.6351,0 -1.15,0.516 -1.15,1.1525c0,0.6366 0.5149,1.1526 1.15,1.1526z"/>
        <path id="svg_7" stroke="#444444" fill="#444444" d="m51.6002,15.9828c0.6351,0 1.15,-0.516 1.15,-1.1525c0,-0.6366 -0.5149,-1.1526 -1.15,-1.1526c-0.6351,0 -1.15,0.516 -1.15,1.1526c0,0.6365 0.5149,1.1525 1.15,1.1525z"/>
        <path id="svg_8" stroke="#444444" fill="#444444" d="m44.6998,12.5258c0.6351,0 1.15,-0.516 1.15,-1.1526c0,-0.6365 -0.5149,-1.1525 -1.15,-1.1525c-0.6351,0 -1.15,0.516 -1.15,1.1525c0,0.6366 0.5149,1.1526 1.15,1.1526z"/>
        <path id="svg_9" stroke="#444444" fill="#444444" d="m47.0001,15.9828c0.6351,0 1.15,-0.516 1.15,-1.1525c0,-0.6366 -0.5149,-1.1526 -1.15,-1.1526c-0.6351,0 -1.15,0.516 -1.15,1.1526c0,0.6365 0.5149,1.1525 1.15,1.1525z"/>
        <path id="svg_10" stroke="#444444" fill="#444444" d="m40.1002,12.5258c0.6351,0 1.15,-0.516 1.15,-1.1526c0,-0.6365 -0.5149,-1.1525 -1.15,-1.1525c-0.6351,0 -1.15,0.516 -1.15,1.1525c0,0.6366 0.5149,1.1526 1.15,1.1526z"/>
        <ellipse stroke="#0bc414" ry="1.33484" rx="1.06787" id="svg_40" cy="54.67396" cx="11.35956" stroke-linecap="null" stroke-linejoin="null" stroke-dasharray="null" stroke-width="null" fill="#0bc414"/>
        <path id="svg_12" stroke="#444444" fill="#444444" d="m70,19.8925l0,-13.58159c0,-2.92861 -2.3771,-5.31091 -5.2992,-5.31091l-58.4016,0c-2.92215,0 -5.2992,2.3823 -5.2992,5.31091l0,13.58039c0,1.6931 0.80845,3.1857 2.04355,4.1584c-1.2351,0.9739 -2.04355,2.4676 -2.04355,4.1595l0,13.5804c0,1.6931 0.80845,3.1857 2.04355,4.1584c-1.2351,0.9739 -2.04355,2.4676 -2.04355,4.1595l0,13.5804c0,2.9298 2.37705,5.3121 5.2992,5.3121l58.4004,0c2.9222,0 5.2992,-2.3823 5.2992,-5.3109l0,-13.5816c0,-1.6931 -0.8084,-3.1856 -2.0435,-4.1583c1.2363,-0.9728 2.0447,-2.4665 2.0447,-4.1584l0,-13.5816c0,-1.6931 -0.8084,-3.1856 -2.0435,-4.1584c1.2351,-0.9727 2.0435,-2.4664 2.0435,-4.1583zm-2.3,30.215l0,13.5804c0,1.6574 -1.3455,3.0059 -2.9992,3.0059l-58.4016,0c-1.6537,0.0011 -2.9992,-1.3474 -2.9992,-3.0047l0,-13.5816c0,-1.6573 1.3455,-3.0058 2.9992,-3.0058l58.4004,0c1.6549,0 3.0004,1.3485 3.0004,3.0058zm0,-21.8983l0,13.5804c0,1.6574 -1.3455,3.0059 -2.9992,3.0059l-58.4016,0c-1.6537,0.0011 -2.9992,-1.3474 -2.9992,-3.0047l0,-13.5816c0,-1.6573 1.3455,-3.0058 2.9992,-3.0058l58.4004,0c1.6549,0 3.0004,1.3485 3.0004,3.0058zm-61.4008,-5.3109c-1.6537,0 -2.9992,-1.3485 -2.9992,-3.0058l0,-13.58159c0,-1.65735 1.3455,-3.00583 2.9992,-3.00583l58.4004,0c1.6549,0 3.0004,1.34848 3.0004,3.00583l0,13.58039c0,1.6574 -1.3455,3.0059 -2.9992,3.0059l-58.4016,0l0,0.0011z"/>
        <path id="svg_11" stroke="#444444" fill="#444444" d="m42.4,15.9828c0.6351,0 1.15,-0.516 1.15,-1.1525c0,-0.6366 -0.5149,-1.1526 -1.15,-1.1526c-0.6351,0 -1.15,0.516 -1.15,1.1526c0,0.6365 0.5149,1.1525 1.15,1.1525z"/>
        <path id="svg_13" stroke="#444444" fill="#444444" d="m13.0749,40.1864c2.8532,0 5.175,-2.327 5.175,-5.1865c0,-2.8594 -2.3218,-5.1864 -5.175,-5.1864c-2.8531,0 -5.175,2.327 -5.175,5.1864c0,2.8595 2.3219,5.1865 5.175,5.1865zm0,-8.0678c1.5847,0 2.875,1.292 2.875,2.8813c0,1.5894 -1.2903,2.8814 -2.875,2.8814c-1.5847,0 -2.875,-1.292 -2.875,-2.8814c0,-1.5893 1.2903,-2.8813 2.875,-2.8813z"/>
        <path id="svg_14" stroke="#444444" fill="#444444" d="m58.5001,34.4232c0.6351,0 1.15,-0.516 1.15,-1.1525c0,-0.6365 -0.5149,-1.1525 -1.15,-1.1525c-0.6351,0 -1.15,0.516 -1.15,1.1525c0,0.6365 0.5149,1.1525 1.15,1.1525z"/>
        <path id="svg_15" stroke="#444444" fill="#444444" d="m53.9,34.4232c0.6351,0 1.15,-0.516 1.15,-1.1525c0,-0.6365 -0.5149,-1.1525 -1.15,-1.1525c-0.6351,0 -1.15,0.516 -1.15,1.1525c0,0.6365 0.5149,1.1525 1.15,1.1525z"/>
        <path id="svg_16" stroke="#444444" fill="#444444" d="m60.7999,37.8813c0.6351,0 1.15,-0.5161 1.15,-1.1526c0,-0.6365 -0.5149,-1.1525 -1.15,-1.1525c-0.6351,0 -1.15,0.516 -1.15,1.1525c0,0.6365 0.5149,1.1526 1.15,1.1526z"/>
        <path id="svg_17" stroke="#444444" fill="#444444" d="m56.1998,37.8813c0.6351,0 1.15,-0.5161 1.15,-1.1526c0,-0.6365 -0.5149,-1.1525 -1.15,-1.1525c-0.6351,0 -1.15,0.516 -1.15,1.1525c0,0.6365 0.5149,1.1526 1.15,1.1526z"/>
        <path id="svg_18" stroke="#444444" fill="#444444" d="m49.2999,34.4232c0.6351,0 1.15,-0.516 1.15,-1.1525c0,-0.6365 -0.5149,-1.1525 -1.15,-1.1525c-0.6351,0 -1.15,0.516 -1.15,1.1525c0,0.6365 0.5149,1.1525 1.15,1.1525z"/>
        <path id="svg_19" stroke="#444444" fill="#444444" d="m51.6002,37.8813c0.6351,0 1.15,-0.5161 1.15,-1.1526c0,-0.6365 -0.5149,-1.1525 -1.15,-1.1525c-0.6351,0 -1.15,0.516 -1.15,1.1525c0,0.6365 0.5149,1.1526 1.15,1.1526z"/>
        <path id="svg_20" stroke="#444444" fill="#444444" d="m44.6998,34.4232c0.6351,0 1.15,-0.516 1.15,-1.1525c0,-0.6365 -0.5149,-1.1525 -1.15,-1.1525c-0.6351,0 -1.15,0.516 -1.15,1.1525c0,0.6365 0.5149,1.1525 1.15,1.1525z"/>
        <path id="svg_21" stroke="#444444" fill="#444444" d="m47.0001,37.8813c0.6351,0 1.15,-0.5161 1.15,-1.1526c0,-0.6365 -0.5149,-1.1525 -1.15,-1.1525c-0.6351,0 -1.15,0.516 -1.15,1.1525c0,0.6365 0.5149,1.1526 1.15,1.1526z"/>
        <path id="svg_22" stroke="#444444" fill="#444444" d="m40.1002,34.4232c0.6351,0 1.15,-0.516 1.15,-1.1525c0,-0.6365 -0.5149,-1.1525 -1.15,-1.1525c-0.6351,0 -1.15,0.516 -1.15,1.1525c0,0.6365 0.5149,1.1525 1.15,1.1525z"/>
        <path id="svg_23" stroke="#444444" fill="#444444" d="m42.4,37.8813c0.6351,0 1.15,-0.5161 1.15,-1.1526c0,-0.6365 -0.5149,-1.1525 -1.15,-1.1525c-0.6351,0 -1.15,0.516 -1.15,1.1525c0,0.6365 0.5149,1.1526 1.15,1.1526z"/>
        <path id="svg_24" stroke="#444444" fill="#444444" d="m13.0749,62.0848c2.8532,0 5.175,-2.327 5.175,-5.1864c0,-2.8595 -2.3218,-5.1865 -5.175,-5.1865c-2.8531,0 -5.175,2.327 -5.175,5.1865c0,2.8594 2.3219,5.1864 5.175,5.1864zm0,-8.0678c1.5847,0 2.875,1.292 2.875,2.8814c0,1.5893 -1.2903,2.8813 -2.875,2.8813c-1.5847,0 -2.875,-1.292 -2.875,-2.8813c0,-1.5894 1.2903,-2.8814 2.875,-2.8814z"/>
        <path id="svg_25" stroke="#444444" fill="#444444" d="m58.5001,56.3217c0.6351,0 1.15,-0.516 1.15,-1.1526c0,-0.6365 -0.5149,-1.1525 -1.15,-1.1525c-0.6351,0 -1.15,0.516 -1.15,1.1525c0,0.6366 0.5149,1.1526 1.15,1.1526z"/>
        <path id="svg_26" stroke="#444444" fill="#444444" d="m53.9,56.3217c0.6351,0 1.15,-0.516 1.15,-1.1526c0,-0.6365 -0.5149,-1.1525 -1.15,-1.1525c-0.6351,0 -1.15,0.516 -1.15,1.1525c0,0.6366 0.5149,1.1526 1.15,1.1526z"/>
        <path id="svg_27" stroke="#444444" fill="#444444" d="m60.7999,59.7797c0.6351,0 1.15,-0.516 1.15,-1.1525c0,-0.6366 -0.5149,-1.1526 -1.15,-1.1526c-0.6351,0 -1.15,0.516 -1.15,1.1526c0,0.6365 0.5149,1.1525 1.15,1.1525z"/>
        <path id="svg_28" stroke="#444444" fill="#444444" d="m56.1998,59.7797c0.6351,0 1.15,-0.516 1.15,-1.1525c0,-0.6366 -0.5149,-1.1526 -1.15,-1.1526c-0.6351,0 -1.15,0.516 -1.15,1.1526c0,0.6365 0.5149,1.1525 1.15,1.1525z"/>
        <path id="svg_29" stroke="#444444" fill="#444444" d="m49.2999,56.3217c0.6351,0 1.15,-0.516 1.15,-1.1526c0,-0.6365 -0.5149,-1.1525 -1.15,-1.1525c-0.6351,0 -1.15,0.516 -1.15,1.1525c0,0.6366 0.5149,1.1526 1.15,1.1526z"/>
        <path id="svg_30" stroke="#444444" fill="#444444" d="m51.6002,59.7797c0.6351,0 1.15,-0.516 1.15,-1.1525c0,-0.6366 -0.5149,-1.1526 -1.15,-1.1526c-0.6351,0 -1.15,0.516 -1.15,1.1526c0,0.6365 0.5149,1.1525 1.15,1.1525z"/>
        <path id="svg_31" stroke="#444444" fill="#444444" d="m44.6998,56.3217c0.6351,0 1.15,-0.516 1.15,-1.1526c0,-0.6365 -0.5149,-1.1525 -1.15,-1.1525c-0.6351,0 -1.15,0.516 -1.15,1.1525c0,0.6366 0.5149,1.1526 1.15,1.1526z"/>
        <path id="svg_32" stroke="#444444" fill="#444444" d="m47.0001,59.7797c0.6351,0 1.15,-0.516 1.15,-1.1525c0,-0.6366 -0.5149,-1.1526 -1.15,-1.1526c-0.6351,0 -1.15,0.516 -1.15,1.1526c0,0.6365 0.5149,1.1525 1.15,1.1525z"/>
        <path id="svg_33" stroke="#444444" fill="#444444" d="m40.1002,56.3217c0.6351,0 1.15,-0.516 1.15,-1.1526c0,-0.6365 -0.5149,-1.1525 -1.15,-1.1525c-0.6351,0 -1.15,0.516 -1.15,1.1525c0,0.6366 0.5149,1.1526 1.15,1.1526z"/>
        <path id="svg_34" stroke="#444444" fill="#444444" d="m42.4,59.7797c0.6351,0 1.15,-0.516 1.15,-1.1525c0,-0.6366 -0.5149,-1.1526 -1.15,-1.1526c-0.6351,0 -1.15,0.516 -1.15,1.1526c0,0.6365 0.5149,1.1525 1.15,1.1525z"/>
        <ellipse stroke="#0bc414" ry="2.06483" rx="2.02729" id="svg_38" cy="13.23138" cx="13.16993" stroke-linecap="null" stroke-linejoin="null" stroke-dasharray="null" stroke-width="null" fill="#0bc414"/>
        <ellipse stroke="#0ff9dc" ry="2.00226" rx="2.15836" id="svg_39" cy="56.8097" cx="13.25095" stroke-linecap="null" stroke-linejoin="null" stroke-dasharray="null" stroke-width="null" fill="#0ff9dc"/>
        <ellipse stroke="#d7e57f" ry="1.90215" rx="1.9522" id="svg_44" cy="35.01844" cx="13.04479" stroke-linecap="null" stroke-linejoin="null" stroke-dasharray="null" stroke-width="null" fill="#d7e579"/>
    </g>
</svg>