<svg width="71" height="70" viewBox="0 0 71 70" fill="none" xmlns="http://www.w3.org/2000/svg">
<path d="M13.0749 7.91504C10.2218 7.91504 7.8999 10.242 7.8999 13.1015C7.8999 15.9609 10.2218 18.2879 13.0749 18.2879C15.9281 18.2879 18.2499 15.9609 18.2499 13.1015C18.2499 10.242 15.9281 7.91504 13.0749 7.91504ZM13.0749 15.9828C11.4902 15.9828 10.1999 14.6908 10.1999 13.1015C10.1999 11.5121 11.4902 10.2201 13.0749 10.2201C14.6596 10.2201 15.9499 11.5121 15.9499 13.1015C15.9499 14.6908 14.6596 15.9828 13.0749 15.9828Z" fill="#444444" stroke="#444444"/>
<path d="M58.5001 12.5258C59.1352 12.5258 59.6501 12.0098 59.6501 11.3732C59.6501 10.7367 59.1352 10.2207 58.5001 10.2207C57.865 10.2207 57.3501 10.7367 57.3501 11.3732C57.3501 12.0098 57.865 12.5258 58.5001 12.5258Z" fill="#444444" stroke="#444444"/>
<path d="M53.9 12.5258C54.5351 12.5258 55.05 12.0098 55.05 11.3732C55.05 10.7367 54.5351 10.2207 53.9 10.2207C53.2649 10.2207 52.75 10.7367 52.75 11.3732C52.75 12.0098 53.2649 12.5258 53.9 12.5258Z" fill="#444444" stroke="#444444"/>
<path d="M60.7999 15.9828C61.435 15.9828 61.9499 15.4668 61.9499 14.8303C61.9499 14.1937 61.435 13.6777 60.7999 13.6777C60.1648 13.6777 59.6499 14.1937 59.6499 14.8303C59.6499 15.4668 60.1648 15.9828 60.7999 15.9828Z" fill="#444444" stroke="#444444"/>
<path d="M56.1998 15.9828C56.8349 15.9828 57.3498 15.4668 57.3498 14.8303C57.3498 14.1937 56.8349 13.6777 56.1998 13.6777C55.5647 13.6777 55.0498 14.1937 55.0498 14.8303C55.0498 15.4668 55.5647 15.9828 56.1998 15.9828Z" fill="#444444" stroke="#444444"/>
<path d="M49.2999 12.5258C49.935 12.5258 50.4499 12.0098 50.4499 11.3732C50.4499 10.7367 49.935 10.2207 49.2999 10.2207C48.6648 10.2207 48.1499 10.7367 48.1499 11.3732C48.1499 12.0098 48.6648 12.5258 49.2999 12.5258Z" fill="#444444" stroke="#444444"/>
<path d="M51.6002 15.9828C52.2353 15.9828 52.7502 15.4668 52.7502 14.8303C52.7502 14.1937 52.2353 13.6777 51.6002 13.6777C50.9651 13.6777 50.4502 14.1937 50.4502 14.8303C50.4502 15.4668 50.9651 15.9828 51.6002 15.9828Z" fill="#444444" stroke="#444444"/>
<path d="M44.6998 12.5258C45.3349 12.5258 45.8498 12.0098 45.8498 11.3732C45.8498 10.7367 45.3349 10.2207 44.6998 10.2207C44.0647 10.2207 43.5498 10.7367 43.5498 11.3732C43.5498 12.0098 44.0647 12.5258 44.6998 12.5258Z" fill="#444444" stroke="#444444"/>
<path d="M47.0001 15.9828C47.6352 15.9828 48.1501 15.4668 48.1501 14.8303C48.1501 14.1937 47.6352 13.6777 47.0001 13.6777C46.365 13.6777 45.8501 14.1937 45.8501 14.8303C45.8501 15.4668 46.365 15.9828 47.0001 15.9828Z" fill="#444444" stroke="#444444"/>
<path d="M40.1002 12.5258C40.7353 12.5258 41.2502 12.0098 41.2502 11.3732C41.2502 10.7367 40.7353 10.2207 40.1002 10.2207C39.4651 10.2207 38.9502 10.7367 38.9502 11.3732C38.9502 12.0098 39.4651 12.5258 40.1002 12.5258Z" fill="#444444" stroke="#444444"/>
<path d="M42.4 15.9828C43.0351 15.9828 43.55 15.4668 43.55 14.8303C43.55 14.1937 43.0351 13.6777 42.4 13.6777C41.7649 13.6777 41.25 14.1937 41.25 14.8303C41.25 15.4668 41.7649 15.9828 42.4 15.9828Z" fill="#444444" stroke="#444444"/>
<path d="M70 19.8925V6.31091C70 3.3823 67.6229 1 64.7008 1H6.2992C3.37705 1 1 3.3823 1 6.31091V19.8913C1 21.5844 1.80845 23.077 3.04355 24.0497C1.80845 25.0236 1 26.5173 1 28.2092V41.7896C1 43.4827 1.80845 44.9753 3.04355 45.948C1.80845 46.9219 1 48.4156 1 50.1075V63.6879C1 66.6177 3.37705 69 6.2992 69H64.6996C67.6218 69 69.9988 66.6177 69.9988 63.6891V50.1075C69.9988 48.4144 69.1904 46.9219 67.9553 45.9492C69.1916 44.9764 70 43.4827 70 41.7908V28.2092C70 26.5161 69.1916 25.0236 67.9565 24.0508C69.1916 23.0781 70 21.5844 70 19.8925ZM67.7 50.1075V63.6879C67.7 65.3453 66.3545 66.6938 64.7008 66.6938H6.2992C4.6455 66.6949 3.3 65.3464 3.3 63.6891V50.1075C3.3 48.4502 4.6455 47.1017 6.2992 47.1017H64.6996C66.3545 47.1017 67.7 48.4502 67.7 50.1075ZM67.7 28.2092V41.7896C67.7 43.447 66.3545 44.7955 64.7008 44.7955H6.2992C4.6455 44.7966 3.3 43.4481 3.3 41.7908V28.2092C3.3 26.5519 4.6455 25.2034 6.2992 25.2034H64.6996C66.3545 25.2034 67.7 26.5519 67.7 28.2092ZM6.2992 22.8983C4.6455 22.8983 3.3 21.5498 3.3 19.8925V6.31091C3.3 4.65356 4.6455 3.30508 6.2992 3.30508H64.6996C66.3545 3.30508 67.7 4.65356 67.7 6.31091V19.8913C67.7 21.5487 66.3545 22.8972 64.7008 22.8972H6.2992V22.8983Z" fill="#444444" stroke="#444444"/>
<path d="M13.0749 40.1864C15.9281 40.1864 18.2499 37.8594 18.2499 34.9999C18.2499 32.1405 15.9281 29.8135 13.0749 29.8135C10.2218 29.8135 7.8999 32.1405 7.8999 34.9999C7.8999 37.8594 10.2218 40.1864 13.0749 40.1864ZM13.0749 32.1186C14.6596 32.1186 15.9499 33.4106 15.9499 34.9999C15.9499 36.5893 14.6596 37.8813 13.0749 37.8813C11.4902 37.8813 10.1999 36.5893 10.1999 34.9999C10.1999 33.4106 11.4902 32.1186 13.0749 32.1186Z" fill="#444444" stroke="#444444"/>
<path d="M58.5001 34.4232C59.1352 34.4232 59.6501 33.9072 59.6501 33.2707C59.6501 32.6342 59.1352 32.1182 58.5001 32.1182C57.865 32.1182 57.3501 32.6342 57.3501 33.2707C57.3501 33.9072 57.865 34.4232 58.5001 34.4232Z" fill="#444444" stroke="#444444"/>
<path d="M53.9 34.4232C54.5351 34.4232 55.05 33.9072 55.05 33.2707C55.05 32.6342 54.5351 32.1182 53.9 32.1182C53.2649 32.1182 52.75 32.6342 52.75 33.2707C52.75 33.9072 53.2649 34.4232 53.9 34.4232Z" fill="#444444" stroke="#444444"/>
<path d="M60.7999 37.8813C61.435 37.8813 61.9499 37.3652 61.9499 36.7287C61.9499 36.0922 61.435 35.5762 60.7999 35.5762C60.1648 35.5762 59.6499 36.0922 59.6499 36.7287C59.6499 37.3652 60.1648 37.8813 60.7999 37.8813Z" fill="#444444" stroke="#444444"/>
<path d="M56.1998 37.8813C56.8349 37.8813 57.3498 37.3652 57.3498 36.7287C57.3498 36.0922 56.8349 35.5762 56.1998 35.5762C55.5647 35.5762 55.0498 36.0922 55.0498 36.7287C55.0498 37.3652 55.5647 37.8813 56.1998 37.8813Z" fill="#444444" stroke="#444444"/>
<path d="M49.2999 34.4232C49.935 34.4232 50.4499 33.9072 50.4499 33.2707C50.4499 32.6342 49.935 32.1182 49.2999 32.1182C48.6648 32.1182 48.1499 32.6342 48.1499 33.2707C48.1499 33.9072 48.6648 34.4232 49.2999 34.4232Z" fill="#444444" stroke="#444444"/>
<path d="M51.6002 37.8813C52.2353 37.8813 52.7502 37.3652 52.7502 36.7287C52.7502 36.0922 52.2353 35.5762 51.6002 35.5762C50.9651 35.5762 50.4502 36.0922 50.4502 36.7287C50.4502 37.3652 50.9651 37.8813 51.6002 37.8813Z" fill="#444444" stroke="#444444"/>
<path d="M44.6998 34.4232C45.3349 34.4232 45.8498 33.9072 45.8498 33.2707C45.8498 32.6342 45.3349 32.1182 44.6998 32.1182C44.0647 32.1182 43.5498 32.6342 43.5498 33.2707C43.5498 33.9072 44.0647 34.4232 44.6998 34.4232Z" fill="#444444" stroke="#444444"/>
<path d="M47.0001 37.8813C47.6352 37.8813 48.1501 37.3652 48.1501 36.7287C48.1501 36.0922 47.6352 35.5762 47.0001 35.5762C46.365 35.5762 45.8501 36.0922 45.8501 36.7287C45.8501 37.3652 46.365 37.8813 47.0001 37.8813Z" fill="#444444" stroke="#444444"/>
<path d="M40.1002 34.4232C40.7353 34.4232 41.2502 33.9072 41.2502 33.2707C41.2502 32.6342 40.7353 32.1182 40.1002 32.1182C39.4651 32.1182 38.9502 32.6342 38.9502 33.2707C38.9502 33.9072 39.4651 34.4232 40.1002 34.4232Z" fill="#444444" stroke="#444444"/>
<path d="M42.4 37.8813C43.0351 37.8813 43.55 37.3652 43.55 36.7287C43.55 36.0922 43.0351 35.5762 42.4 35.5762C41.7649 35.5762 41.25 36.0922 41.25 36.7287C41.25 37.3652 41.7649 37.8813 42.4 37.8813Z" fill="#444444" stroke="#444444"/>
<path d="M13.0749 62.0848C15.9281 62.0848 18.2499 59.7578 18.2499 56.8984C18.2499 54.0389 15.9281 51.7119 13.0749 51.7119C10.2218 51.7119 7.8999 54.0389 7.8999 56.8984C7.8999 59.7578 10.2218 62.0848 13.0749 62.0848ZM13.0749 54.017C14.6596 54.017 15.9499 55.309 15.9499 56.8984C15.9499 58.4877 14.6596 59.7797 13.0749 59.7797C11.4902 59.7797 10.1999 58.4877 10.1999 56.8984C10.1999 55.309 11.4902 54.017 13.0749 54.017Z" fill="#444444" stroke="#444444"/>
<path d="M58.5001 56.3217C59.1352 56.3217 59.6501 55.8057 59.6501 55.1691C59.6501 54.5326 59.1352 54.0166 58.5001 54.0166C57.865 54.0166 57.3501 54.5326 57.3501 55.1691C57.3501 55.8057 57.865 56.3217 58.5001 56.3217Z" fill="#444444" stroke="#444444"/>
<path d="M53.9 56.3217C54.5351 56.3217 55.05 55.8057 55.05 55.1691C55.05 54.5326 54.5351 54.0166 53.9 54.0166C53.2649 54.0166 52.75 54.5326 52.75 55.1691C52.75 55.8057 53.2649 56.3217 53.9 56.3217Z" fill="#444444" stroke="#444444"/>
<path d="M60.7999 59.7797C61.435 59.7797 61.9499 59.2637 61.9499 58.6272C61.9499 57.9906 61.435 57.4746 60.7999 57.4746C60.1648 57.4746 59.6499 57.9906 59.6499 58.6272C59.6499 59.2637 60.1648 59.7797 60.7999 59.7797Z" fill="#444444" stroke="#444444"/>
<path d="M56.1998 59.7797C56.8349 59.7797 57.3498 59.2637 57.3498 58.6272C57.3498 57.9906 56.8349 57.4746 56.1998 57.4746C55.5647 57.4746 55.0498 57.9906 55.0498 58.6272C55.0498 59.2637 55.5647 59.7797 56.1998 59.7797Z" fill="#444444" stroke="#444444"/>
<path d="M49.2999 56.3217C49.935 56.3217 50.4499 55.8057 50.4499 55.1691C50.4499 54.5326 49.935 54.0166 49.2999 54.0166C48.6648 54.0166 48.1499 54.5326 48.1499 55.1691C48.1499 55.8057 48.6648 56.3217 49.2999 56.3217Z" fill="#444444" stroke="#444444"/>
<path d="M51.6002 59.7797C52.2353 59.7797 52.7502 59.2637 52.7502 58.6272C52.7502 57.9906 52.2353 57.4746 51.6002 57.4746C50.9651 57.4746 50.4502 57.9906 50.4502 58.6272C50.4502 59.2637 50.9651 59.7797 51.6002 59.7797Z" fill="#444444" stroke="#444444"/>
<path d="M44.6998 56.3217C45.3349 56.3217 45.8498 55.8057 45.8498 55.1691C45.8498 54.5326 45.3349 54.0166 44.6998 54.0166C44.0647 54.0166 43.5498 54.5326 43.5498 55.1691C43.5498 55.8057 44.0647 56.3217 44.6998 56.3217Z" fill="#444444" stroke="#444444"/>
<path d="M47.0001 59.7797C47.6352 59.7797 48.1501 59.2637 48.1501 58.6272C48.1501 57.9906 47.6352 57.4746 47.0001 57.4746C46.365 57.4746 45.8501 57.9906 45.8501 58.6272C45.8501 59.2637 46.365 59.7797 47.0001 59.7797Z" fill="#444444" stroke="#444444"/>
<path d="M40.1002 56.3217C40.7353 56.3217 41.2502 55.8057 41.2502 55.1691C41.2502 54.5326 40.7353 54.0166 40.1002 54.0166C39.4651 54.0166 38.9502 54.5326 38.9502 55.1691C38.9502 55.8057 39.4651 56.3217 40.1002 56.3217Z" fill="#444444" stroke="#444444"/>
<path d="M42.4 59.7797C43.0351 59.7797 43.55 59.2637 43.55 58.6272C43.55 57.9906 43.0351 57.4746 42.4 57.4746C41.7649 57.4746 41.25 57.9906 41.25 58.6272C41.25 59.2637 41.7649 59.7797 42.4 59.7797Z" fill="#444444" stroke="#444444"/>
</svg>
