<svg width="65" height="65" viewBox="0 0 65 65" fill="none" xmlns="http://www.w3.org/2000/svg">
<path d="M49.7947 1H15.2053C7.37233 1 1 7.37233 1 15.2053V49.7947C1 57.6277 7.37233 64 15.2053 64H49.7947C57.6277 64 64 57.6277 64 49.7947V15.2053C64 7.37233 57.6277 1 49.7947 1ZM61.6667 49.7947C61.6667 56.342 56.3408 61.6667 49.7947 61.6667H15.2053C8.65917 61.6667 3.33333 56.342 3.33333 49.7947V15.2053C3.33333 8.658 8.65917 3.33333 15.2053 3.33333H49.7947C56.3408 3.33333 61.6667 8.658 61.6667 15.2053V49.7947Z" fill="#444444" stroke="#444444"/>
<path d="M51.016 11.3444L25.3493 14.6764C24.7683 14.7523 24.3332 15.2469 24.3332 15.8338V20.8341V24.3341V43.8606C22.7337 42.3113 20.4528 41.3348 17.9165 41.3348C13.0912 41.3348 9.1665 44.8499 9.1665 49.1689C9.1665 53.4879 13.0912 57.0008 17.9165 57.0008C22.7418 57.0008 26.6665 53.4868 26.6665 49.1678V25.3584L49.9998 22.3274V36.3379C48.4167 34.8014 46.1673 33.8343 43.666 33.8343C38.8873 33.8343 35 37.3494 35 41.6684C35 45.9874 38.8885 49.5014 43.666 49.5014C48.4447 49.5014 52.3332 45.9874 52.3332 41.6684V21.0009V17.5009V12.5006C52.3332 12.1646 52.1885 11.8449 51.9365 11.6244C51.6833 11.4039 51.3462 11.2989 51.016 11.3444ZM17.9165 54.6674C14.378 54.6674 11.4998 52.2011 11.4998 49.1678C11.4998 46.1344 14.378 43.6669 17.9165 43.6669C21.455 43.6669 24.3332 46.1344 24.3332 49.1678C24.3332 52.2011 21.455 54.6674 17.9165 54.6674ZM26.6665 23.0053V20.8341V16.8593L49.9998 13.8294V17.4998V19.9743L26.6665 23.0053ZM43.666 47.1669C40.1742 47.1669 37.3333 44.7006 37.3333 41.6673C37.3333 38.6339 40.1742 36.1664 43.666 36.1664C47.1578 36.1664 49.9998 38.6351 49.9998 41.6673C49.9998 44.6994 47.1578 47.1669 43.666 47.1669Z" fill="#444444" stroke="#444444"/>
</svg>
